<svg width="25" height="56" viewBox="0 0 25 56" fill="none" xmlns="http://www.w3.org/2000/svg">
<mask id="path-1-outside-1_1_5" maskUnits="userSpaceOnUse" x="-0.376053" y="-0.515854" width="25" height="57" fill="black">
<rect fill="white" x="-0.376053" y="-0.515854" width="25" height="57"/>
<path d="M8.58488 18.9138C10.7984 19.2394 12.9794 20.2159 15.1279 21.8435C17.3088 23.4386 19.1155 25.4405 20.5478 27.8494C22.0126 30.2257 22.745 32.7485 22.745 35.4177C22.745 38.9659 22.1754 42.1723 21.0361 45.0369C19.9293 47.8689 18.3017 50.115 16.1532 51.7752C14.0048 53.4028 11.3844 54.2166 8.29192 54.2166C4.9065 54.2166 2.66041 53.4353 1.55363 51.8728L3.01848 38.6404C3.63697 39.4868 4.53215 40.089 5.70403 40.447C6.8759 40.7726 8.60116 40.9353 10.8798 40.9353C12.3121 40.9353 13.7932 40.8539 15.3232 40.6912C16.8531 40.4959 18.1389 40.2354 19.1806 39.9099C20.2548 39.5519 20.7919 39.1287 20.7919 38.6404C20.7919 38.1847 20.092 37.5499 18.6923 36.7361C17.3251 35.8897 15.5836 35.0759 13.4677 34.2947C11.3518 33.4809 9.1871 32.9112 6.97356 32.5857L8.58488 18.9138ZM11.0751 1.92165C13.4189 3.45159 15.3394 5.37217 16.8368 7.68336L11.0751 13.4451C9.54517 11.2315 7.6246 9.31097 5.3134 7.68336L11.0751 1.92165Z"/>
</mask>
<path d="M8.58488 18.9138C10.7984 19.2394 12.9794 20.2159 15.1279 21.8435C17.3088 23.4386 19.1155 25.4405 20.5478 27.8494C22.0126 30.2257 22.745 32.7485 22.745 35.4177C22.745 38.9659 22.1754 42.1723 21.0361 45.0369C19.9293 47.8689 18.3017 50.115 16.1532 51.7752C14.0048 53.4028 11.3844 54.2166 8.29192 54.2166C4.9065 54.2166 2.66041 53.4353 1.55363 51.8728L3.01848 38.6404C3.63697 39.4868 4.53215 40.089 5.70403 40.447C6.8759 40.7726 8.60116 40.9353 10.8798 40.9353C12.3121 40.9353 13.7932 40.8539 15.3232 40.6912C16.8531 40.4959 18.1389 40.2354 19.1806 39.9099C20.2548 39.5519 20.7919 39.1287 20.7919 38.6404C20.7919 38.1847 20.092 37.5499 18.6923 36.7361C17.3251 35.8897 15.5836 35.0759 13.4677 34.2947C11.3518 33.4809 9.1871 32.9112 6.97356 32.5857L8.58488 18.9138ZM11.0751 1.92165C13.4189 3.45159 15.3394 5.37217 16.8368 7.68336L11.0751 13.4451C9.54517 11.2315 7.6246 9.31097 5.3134 7.68336L11.0751 1.92165Z" fill="#6A2428" fill-opacity="0.2"/>
<path d="M8.58488 18.9138L8.80313 17.4298L7.27588 17.2052L7.09519 18.7383L8.58488 18.9138ZM15.1279 21.8435L14.2221 23.0392L14.2322 23.0468L14.2424 23.0543L15.1279 21.8435ZM20.5478 27.8494L19.2585 28.616L19.2646 28.6263L19.2709 28.6365L20.5478 27.8494ZM21.0361 45.0369L19.6422 44.4825L19.639 44.4909L21.0361 45.0369ZM16.1532 51.7752L17.059 52.9708L17.0647 52.9665L17.0704 52.9621L16.1532 51.7752ZM1.55363 51.8728L0.0627421 51.7078L1.43051e-06 52.2745L0.329598 52.7398L1.55363 51.8728ZM3.01848 38.6404L4.22957 37.7554L1.95227 34.6391L1.52759 38.4753L3.01848 38.6404ZM5.70403 40.447L5.2657 41.8816L5.28406 41.8872L5.30256 41.8923L5.70403 40.447ZM15.3232 40.6912L15.4818 42.1828L15.4975 42.1811L15.5131 42.1791L15.3232 40.6912ZM19.1806 39.9099L19.628 41.3416L19.6415 41.3374L19.6549 41.333L19.1806 39.9099ZM18.6923 36.7361L17.9028 38.0115L17.9204 38.0224L17.9384 38.0329L18.6923 36.7361ZM13.4677 34.2947L12.9292 35.6947L12.9387 35.6983L12.9481 35.7018L13.4677 34.2947ZM6.97356 32.5857L5.48387 32.4101L5.31326 33.8577L6.75532 34.0697L6.97356 32.5857ZM11.0751 1.92165L11.8951 0.665577L10.8754 0L10.0145 0.860985L11.0751 1.92165ZM16.8368 7.68336L17.8975 8.74403L18.7555 7.88606L18.0957 6.86775L16.8368 7.68336ZM11.0751 13.4451L9.84118 14.298L10.8639 15.7776L12.1358 14.5057L11.0751 13.4451ZM5.3134 7.68336L4.25274 6.6227L2.99214 7.8833L4.44973 8.90977L5.3134 7.68336ZM8.58488 18.9138L8.36664 20.3979C10.284 20.6798 12.2339 21.533 14.2221 23.0392L15.1279 21.8435L16.0336 20.6479C13.725 18.8989 11.3129 17.7989 8.80313 17.4298L8.58488 18.9138ZM15.1279 21.8435L14.2424 23.0543C16.2541 24.5256 17.9256 26.3743 19.2585 28.616L20.5478 27.8494L21.8371 27.0828C20.3054 24.5068 18.3636 22.3516 16.0133 20.6328L15.1279 21.8435ZM20.5478 27.8494L19.2709 28.6365C20.5969 30.7875 21.245 33.0395 21.245 35.4177H22.745H24.245C24.245 32.4574 23.4284 29.6638 21.8247 27.0623L20.5478 27.8494ZM22.745 35.4177H21.245C21.245 38.8044 20.7017 41.8189 19.6423 44.4825L21.0361 45.0369L22.4299 45.5912C23.6491 42.5257 24.245 39.1274 24.245 35.4177H22.745ZM21.0361 45.0369L19.639 44.4909C18.619 47.1009 17.1444 49.1136 15.2361 50.5882L16.1532 51.7752L17.0704 52.9621C19.4589 51.1164 21.2396 48.637 22.4332 45.5829L21.0361 45.0369ZM16.1532 51.7752L15.2475 50.5795C13.3971 51.9813 11.1076 52.7166 8.29192 52.7166V54.2166V55.7166C11.6611 55.7166 14.6125 54.8242 17.059 52.9708L16.1532 51.7752ZM8.29192 54.2166V52.7166C5.02908 52.7166 3.44389 51.9463 2.77767 51.0058L1.55363 51.8728L0.329598 52.7398C1.87692 54.9243 4.78392 55.7166 8.29192 55.7166V54.2166ZM1.55363 51.8728L3.04453 52.0379L4.50937 38.8054L3.01848 38.6404L1.52759 38.4753L0.0627421 51.7078L1.55363 51.8728ZM3.01848 38.6404L1.80739 39.5254C2.64828 40.6761 3.83793 41.4453 5.2657 41.8816L5.70403 40.447L6.14235 39.0125C5.22637 38.7326 4.62565 38.2974 4.22957 37.7554L3.01848 38.6404ZM5.70403 40.447L5.30256 41.8923C6.67345 42.2731 8.56174 42.4353 10.8798 42.4353V40.9353V39.4353C8.64058 39.4353 7.07835 39.272 6.10549 39.0018L5.70403 40.447ZM10.8798 40.9353V42.4353C12.3688 42.4353 13.903 42.3507 15.4818 42.1828L15.3232 40.6912L15.1645 39.1996C13.6834 39.3572 12.2554 39.4353 10.8798 39.4353V40.9353ZM15.3232 40.6912L15.5131 42.1791C17.0977 41.9768 18.4759 41.7017 19.628 41.3416L19.1806 39.9099L18.7332 38.4782C17.802 38.7692 16.6085 39.0149 15.1332 39.2033L15.3232 40.6912ZM19.1806 39.9099L19.6549 41.333C20.2632 41.1302 20.8526 40.8684 21.3174 40.5022C21.7944 40.1264 22.2919 39.5085 22.2919 38.6404H20.7919H19.2919C19.2919 38.4725 19.3418 38.3298 19.3989 38.2329C19.4494 38.1472 19.4897 38.123 19.4608 38.1458C19.4328 38.1678 19.3634 38.2153 19.2311 38.2794C19.101 38.3426 18.9285 38.4128 18.7062 38.4869L19.1806 39.9099ZM20.7919 38.6404H22.2919C22.2919 38.1422 22.1033 37.7357 21.9231 37.4548C21.7399 37.1694 21.5071 36.9222 21.2747 36.7114C20.8111 36.2909 20.1825 35.8674 19.4462 35.4393L18.6923 36.7361L17.9384 38.0329C18.6019 38.4186 19.0231 38.7194 19.2593 38.9336C19.3769 39.0402 19.4065 39.088 19.3983 39.0752C19.3931 39.067 19.2919 38.9108 19.2919 38.6404H20.7919ZM18.6923 36.7361L19.4818 35.4607C18.0029 34.5452 16.1628 33.6908 13.9873 32.8876L13.4677 34.2947L12.9481 35.7018C15.0043 36.461 16.6474 37.2343 17.9028 38.0115L18.6923 36.7361ZM13.4677 34.2947L14.0062 32.8947C11.7883 32.0417 9.5163 31.4435 7.1918 31.1017L6.97356 32.5857L6.75532 34.0697C8.85789 34.379 10.9153 34.9201 12.9292 35.6947L13.4677 34.2947ZM6.97356 32.5857L8.46325 32.7613L10.0746 19.0894L8.58488 18.9138L7.09519 18.7383L5.48387 32.4101L6.97356 32.5857ZM11.0751 1.92165L10.2552 3.17772C12.4264 4.59504 14.1964 6.36658 15.578 8.49898L16.8368 7.68336L18.0957 6.86775C16.4825 4.37775 14.4113 2.30814 11.8951 0.665577L11.0751 1.92165ZM16.8368 7.68336L15.7762 6.6227L10.0145 12.3844L11.0751 13.4451L12.1358 14.5057L17.8975 8.74403L16.8368 7.68336ZM11.0751 13.4451L12.3091 12.5922C10.6736 10.2261 8.62535 8.1811 6.17707 6.45695L5.3134 7.68336L4.44973 8.90977C6.62385 10.4408 8.4167 12.237 9.84118 14.298L11.0751 13.4451ZM5.3134 7.68336L6.37406 8.74403L12.1358 2.98231L11.0751 1.92165L10.0145 0.860985L4.25274 6.6227L5.3134 7.68336Z" fill="#CF9555" fill-opacity="0.5" mask="url(#path-1-outside-1_1_5)"/>
</svg>
